<svg xmlns="http://www.w3.org/2000/svg" viewBox="0 0 100 100">
  <circle cx="50" cy="50" r="46" fill="#f0f0f0" stroke="#222" stroke-width="3"/>
  <!-- center pentagon -->
  <polygon points="50,30 63,40 58,55 42,55 37,40" fill="#222"/>
  <!-- top -->
  <polygon points="50,4 62,14 63,28 50,30 37,28 38,14" fill="#222" opacity="0.15"/>
  <!-- top-right -->
  <polygon points="62,14 76,18 82,32 68,40 63,28" fill="#222"/>
  <!-- bottom-right -->
  <polygon points="82,32 86,48 74,58 58,55 68,40" fill="#222" opacity="0.15"/>
  <!-- bottom -->
  <polygon points="74,58 70,72 56,78 44,78 30,72 26,58 42,55 58,55" fill="#222"/>
  <!-- bottom-left -->
  <polygon points="26,58 14,48 18,32 32,28 37,40" fill="#222" opacity="0.15"/>
  <!-- top-left -->
  <polygon points="18,32 24,18 38,14 37,28 32,28" fill="#222"/>
</svg>
